# xmcd
#
# Track frame offsets: 
#        150
#        12385
#        23237
#        37827
#        49044
#        58551
#        69815
#        82277
#        93039
#        108764
#        121445
#        139268
#        152757
#        164581
#        174106
#        186611
#        199233
#        211841
#
# Disc length: 2978 seconds
#
# Revision: 0
# Processed by: cddbd v1.5.2PL0 Copyright (c) Steve Scherf et al.
# Submitted via: ExactAudioCopy v0.99pb5
#
DISCID=ef0ba012
DTITLE=Otis Redding - Groovin Time [CD1)
DYEAR=2009
DGENRE=
TTITLE0=Fa-Fa-Fa-Fa-Fa (Sad Song)
TTITLE1=Pain In My Heart
TTITLE2=You Send Me
TTITLE3=These Arms Of Mine
TTITLE4=Louie Louie
TTITLE5=Lucille
TTITLE6=Come To Me
TTITLE7=That's How Strong My Love Is
TTITLE8=Just One More Day
TTITLE9=It's Growing
TTITLE10=Cigarettes And Coffee
TTITLE11=Chain Gang
TTITLE12=Scratch My Back
TTITLE13=Treat Her Right
TTITLE14=634-5789
TTITLE15=I Can't Turn You Loose
TTITLE16=Stand By Me
TTITLE17=Security
EXTD=
EXTT0=
EXTT1=
EXTT2=
EXTT3=
EXTT4=
EXTT5=
EXTT6=
EXTT7=
EXTT8=
EXTT9=
EXTT10=
EXTT11=
EXTT12=
EXTT13=
EXTT14=
EXTT15=
EXTT16=
EXTT17=
PLAYORDER=
